<?xml version="1.0" encoding="iso-8859-1"?>
<!-- Generator: Adobe Illustrator 18.0.0, SVG Export Plug-In . SVG Version: 6.00 Build 0)  -->
<!DOCTYPE svg PUBLIC "-//W3C//DTD SVG 1.1//EN" "http://www.w3.org/Graphics/SVG/1.1/DTD/svg11.dtd">
<svg version="1.1" id="Capa_1" xmlns="http://www.w3.org/2000/svg" xmlns:xlink="http://www.w3.org/1999/xlink" x="0px" y="0px"
	 viewBox="0 0 59.464 59.464" style="enable-background:new 0 0 59.464 59.464;" xml:space="preserve">
<path d="M27.732,45.596c-7.354,0-13.315-5.961-13.315-13.315c0-3.095,1.066-5.937,2.837-8.198L35.93,42.758
	C33.669,44.53,30.828,45.596,27.732,45.596z M8.457,47.871c-2.206,0-4.001-1.795-4.001-4.001V21.324
	c0-2.206,1.795-4.001,4.001-4.001h2.038L7.56,14.387c-3.437,0.443-6.103,3.381-6.103,6.937V43.87c0,3.86,3.141,7.001,7.001,7.001
	h35.585l-3-3H8.457z M58.877,58.878c-0.391,0.391-0.902,0.586-1.414,0.586s-1.023-0.195-1.414-0.586L0.586,3.414
	c-0.781-0.781-0.781-2.047,0-2.828c0.781-0.781,2.047-0.781,2.828,0l12.402,12.402c1.105-2.58,3.666-4.395,6.647-4.395h10.538
	c3.473,0,6.382,2.461,7.074,5.731h6.932c3.86,0,7.001,3.141,7.001,7.001V43.87c0,2.01-0.863,3.81-2.225,5.086l7.094,7.094
	C59.659,56.831,59.659,58.097,58.877,58.878z M18.27,15.442l4.489,4.489c1.536-0.621,3.214-0.965,4.973-0.965
	c7.353,0,13.315,5.961,13.315,13.315c0,1.759-0.343,3.437-0.965,4.973l9.583,9.583c0.818-0.733,1.343-1.786,1.343-2.968V21.324
	c0-2.206-1.795-4.001-4.001-4.001h-8.275c-0.828,0-1.5-0.672-1.5-1.5c0-2.333-1.897-4.231-4.23-4.231H22.463
	C20.261,11.593,18.467,13.29,18.27,15.442z"/>
<g>
</g>
<g>
</g>
<g>
</g>
<g>
</g>
<g>
</g>
<g>
</g>
<g>
</g>
<g>
</g>
<g>
</g>
<g>
</g>
<g>
</g>
<g>
</g>
<g>
</g>
<g>
</g>
<g>
</g>
</svg>
