<svg version="1.1" id="Capa_1" xmlns="http://www.w3.org/2000/svg" x="0" y="0" viewBox="0 0 59.464 59.464" xml:space="preserve"><path d="M27.732 45.596c-7.354 0-13.315-5.961-13.315-13.315a13.25 13.25 0 012.837-8.198L35.93 42.758a13.242 13.242 0 01-8.198 2.838zM8.457 47.871a4.006 4.006 0 01-4.001-4.001V21.324a4.006 4.006 0 014.001-4.001h2.038L7.56 14.387c-3.437.443-6.103 3.381-6.103 6.937V43.87a7.01 7.01 0 007.001 7.001h35.585l-3-3H8.457zm50.42 11.007c-.391.391-.902.586-1.414.586s-1.023-.195-1.414-.586L.586 3.414A2 2 0 113.414.586l12.402 12.402c1.105-2.58 3.666-4.395 6.647-4.395h10.538c3.473 0 6.382 2.461 7.074 5.731h6.932a7.01 7.01 0 017.001 7.001V43.87c0 2.01-.863 3.81-2.225 5.086l7.094 7.094a1.998 1.998 0 010 2.828zM18.27 15.442l4.489 4.489a13.237 13.237 0 014.973-.965c7.353 0 13.315 5.961 13.315 13.315 0 1.759-.343 3.437-.965 4.973l9.583 9.583a3.976 3.976 0 001.343-2.968V21.324a4.006 4.006 0 00-4.001-4.001h-8.275a1.5 1.5 0 01-1.5-1.5 4.235 4.235 0 00-4.23-4.231H22.463c-2.202.001-3.996 1.698-4.193 3.85z"/></svg>